<svg xmlns="http://www.w3.org/2000/svg" xmlns:xlink="http://www.w3.org/1999/xlink" width="40" zoomAndPan="magnify" viewBox="0 0 30 30.000001" height="40" preserveAspectRatio="xMidYMid meet" version="1.0"><defs><clipPath id="id1"><path d="M 4 5 L 25.710938 5 L 25.710938 26.972656 L 4 26.972656 Z M 4 5 " clip-rule="nonzero"/></clipPath><clipPath id="id2"><path d="M 13 2.296875 L 16 2.296875 L 16 11 L 13 11 Z M 13 2.296875 " clip-rule="nonzero"/></clipPath></defs><g clip-path="url(#id1)"><path fill="#ffc0cb" d="M 14.824219 26.972656 C 20.769531 26.972656 25.605469 22.007812 25.605469 15.90625 C 25.605469 11.6875 23.21875 7.78125 19.523438 5.953125 C 18.945312 5.664062 18.246094 5.914062 17.96875 6.507812 C 17.691406 7.105469 17.933594 7.816406 18.511719 8.101562 C 21.410156 9.535156 23.28125 12.597656 23.28125 15.90625 C 23.28125 20.691406 19.488281 24.585938 14.824219 24.585938 C 10.160156 24.585938 6.367188 20.691406 6.367188 15.90625 C 6.367188 12.597656 8.238281 9.535156 11.132812 8.101562 C 11.710938 7.816406 11.957031 7.101562 11.675781 6.507812 C 11.398438 5.914062 10.703125 5.664062 10.125 5.953125 C 6.429688 7.78125 4.039062 11.6875 4.039062 15.90625 C 4.039062 22.007812 8.878906 26.972656 14.824219 26.972656 Z M 14.824219 26.972656 " fill-opacity="1" fill-rule="nonzero"/></g><g clip-path="url(#id2)"><path fill="#ffc0cb" d="M 14.824219 10.75 C 15.464844 10.75 15.988281 10.214844 15.988281 9.558594 L 15.988281 3.492188 C 15.988281 2.832031 15.464844 2.296875 14.824219 2.296875 C 14.179688 2.296875 13.660156 2.832031 13.660156 3.492188 L 13.660156 9.558594 C 13.660156 10.214844 14.179688 10.75 14.824219 10.75 Z M 14.824219 10.75 " fill-opacity="1" fill-rule="nonzero"/></g></svg>